<svg id="Layer_1" enable-background="new 0 0 512 512" height="512" viewBox="0 0 512 512" width="512" xmlns="http://www.w3.org/2000/svg"><g><path d="m82.5 165.904v180.192c0 15.687 12.717 28.404 28.404 28.404h68.596v130h-67.865c-57.512 0-104.135-46.623-104.135-104.135v-288.73c0-57.512 46.623-104.135 104.135-104.135h67.865v130h-68.596c-15.687 0-28.404 12.717-28.404 28.404z" fill="#ff6167"/><g fill="#fe454a"><path d="m110.904 137.5h-30c-15.687 0-28.404 12.717-28.404 28.404v180.192c0 15.687 12.717 28.404 28.404 28.404h30c-15.687 0-28.404-12.717-28.404-28.404v-180.192c0-15.687 12.717-28.404 28.404-28.404z"/><path d="m149.5 7.5h30v130h-30z"/><path d="m149.5 374.5h30v130h-30z"/></g><path d="m207.5 137.5h-28v-130h28c6.627 0 12 5.373 12 12v106c0 6.627-5.373 12-12 12z" fill="#2fd9e7"/><path d="m207.5 504.5h-28v-130h28c6.627 0 12 5.373 12 12v106c0 6.627-5.373 12-12 12z" fill="#2fd9e7"/><path d="m463.883 114.004c-52.645-51.649-137.481-51.342-189.744.921-41.083 41.082-50.057 102.293-26.93 152.174 6.476 13.967 6.832 29.999.751 44.143l-12.82 29.817c-1.097 2.552 1.499 5.128 4.042 4.012l29.351-12.884c14.146-6.209 30.27-6.044 44.296.431 50.706 23.412 113.057 13.691 154.081-29.164 51.287-53.576 49.916-137.51-3.027-189.45z" fill="#f8f7f7"/><g><path d="m463.883 114.004c-30.003-29.435-70.459-41.985-109.384-37.671 28.957 3.219 57.064 15.773 79.384 37.671 52.942 51.941 54.314 135.874 3.027 189.45-22.775 23.792-52.126 37.354-82.406 40.721 40.25 4.461 82.134-9.098 112.406-40.721 51.287-53.576 49.915-137.51-3.027-189.45z" fill="#efefef"/></g><path d="m435.446 268.102h-131.679c-8.842 0-16.01-7.168-16.01-16.01v-11.273c0-1.773 1.437-3.21 3.21-3.21h157.28c1.773 0 3.21 1.437 3.21 3.21v11.273c-.001 8.842-7.169 16.01-16.011 16.01z" fill="#e0925b"/><path d="m448.246 237.609h-30c1.773 0 3.21 1.437 3.21 3.21v11.273c0 8.842-7.168 16.01-16.01 16.01h30c8.842 0 16.01-7.168 16.01-16.01v-11.273c0-1.773-1.437-3.21-3.21-3.21z" fill="#d48145"/><path d="m448.25 209.609h-157.287c-1.814 0-3.266-1.497-3.209-3.31.444-14.159 7.001-68.91 81.852-68.91s81.408 54.752 81.852 68.91c.058 1.814-1.394 3.31-3.208 3.31z" fill="#e0925b"/><path d="m369.606 137.389c-5.344 0-10.329.288-15 .811 60.745 6.809 66.44 54.951 66.852 68.099.057 1.813-1.395 3.31-3.209 3.31h30c1.814 0 3.266-1.497 3.209-3.31-.443-14.158-7-68.91-81.852-68.91z" fill="#d48145"/><path d="m447.085 237.609h-154.958c-7.732 0-14-6.268-14-14 0-7.732 6.268-14 14-14h154.958c7.732 0 14 6.268 14 14 0 7.732-6.268 14-14 14z" fill="#e07f5d"/><path d="m447.085 209.609h-30c7.732 0 14 6.268 14 14s-6.268 14-14 14h30c7.732 0 14-6.268 14-14s-6.268-14-14-14z" fill="#d06d4a"/><g><path d="m303.767 275.602h131.68c12.963 0 23.51-10.546 23.51-23.51v-10.574c12.776-8.306 12.762-27.537-.015-35.827-.284-7.706-2.289-26.572-14.405-43.518-27.461-43.217-122.403-43.212-149.859 0-12.115 16.946-14.121 35.811-14.405 43.518-12.783 8.295-12.785 27.527-.015 35.827v10.574c-.001 12.964 10.546 23.51 23.509 23.51zm143.318-58.493c8.605.306 8.599 12.697 0 13h-154.957c-8.605-.306-8.599-12.697 0-13zm-3.129 34.983c0 4.692-3.817 8.51-8.51 8.51h-131.68c-4.692 0-8.51-3.817-8.51-8.51v-6.983h148.699v6.983zm-74.35-107.203c61.399 0 72.295 39.391 74.064 57.22h-148.128c1.769-17.83 12.665-57.22 74.064-57.22z"/><path d="m207.5 0h-95.865c-19.479 0-38.658 5.094-55.463 14.732-3.593 2.061-4.836 6.644-2.775 10.237 2.06 3.593 6.646 4.836 10.237 2.775 14.538-8.337 31.136-12.744 48.001-12.744h60.365v115h-61.096c-19.798 0-35.904 16.106-35.904 35.904v137.84c.344 9.931 14.659 9.923 15 0v-137.84c0-11.527 9.377-20.904 20.904-20.904h96.596c10.752 0 19.5-8.748 19.5-19.5v-106c0-10.752-8.748-19.5-19.5-19.5zm4.5 125.5c0 2.481-2.019 4.5-4.5 4.5h-20.5v-115h20.5c2.481 0 4.5 2.019 4.5 4.5z"/><path d="m207.5 367h-96.596c-11.527 0-20.904-9.377-20.904-20.904v-7.686c-.344-9.931-14.659-9.923-15 0v7.686c0 19.798 16.106 35.904 35.904 35.904h61.096v115h-60.365c-53.285 0-96.635-43.35-96.635-96.635v-288.73c0-23.275 8.391-45.761 23.628-63.313 2.715-3.128 2.381-7.865-.747-10.58-3.129-2.716-7.866-2.382-10.58.747-17.606 20.28-27.301 46.258-27.301 73.146v288.73c0 61.556 50.079 111.635 111.635 111.635h95.865c10.752 0 19.5-8.748 19.5-19.5v-106c0-10.752-8.748-19.5-19.5-19.5zm4.5 125.5c0 2.481-2.019 4.5-4.5 4.5h-20.5v-115h20.5c2.481 0 4.5 2.019 4.5 4.5z"/><path d="m511.981 207.995c-.604-37.549-15.82-72.83-42.847-99.344-2.954-2.899-7.702-2.856-10.605.101-2.901 2.957-2.855 7.706.102 10.606 101.158 101.451-12.809 264.047-142.658 206.452-15.971-7.374-34.361-7.552-50.454-.49l-19.042 8.358 8.373-19.473c6.87-15.977 6.564-34.296-.837-50.261-22.412-48.339-12.193-106.094 25.43-143.716 40.181-40.183 102.858-48.812 152.42-20.979 3.61 2.028 8.184.744 10.211-2.867 2.028-3.612.745-8.184-2.867-10.212-120.592-66.539-255.882 58.77-198.8 184.086 5.609 12.1 5.852 25.96.664 38.025l-12.819 29.815c-1.726 4.012-.838 8.591 2.261 11.667 2.029 2.015 4.696 3.077 7.419 3.076 1.435 0 2.886-.295 4.266-.9l29.351-12.883c12.162-5.338 26.062-5.201 38.138.373 55.238 25.505 120.6 13.132 162.643-30.787 26.173-27.346 40.256-63.089 39.651-100.647z"/></g></g></svg>