<svg id="Capa_1" enable-background="new 0 0 510.223 510.223" height="512" viewBox="0 0 510.223 510.223" width="512" xmlns="http://www.w3.org/2000/svg"><g><g><path d="m387.844 269.754c-13.85-9.005-22.205-24.404-22.205-40.924v-48.967h-220.528v48.757c0 16.635-8.471 32.125-22.478 41.1l-.107.069c-14.006 8.975-22.478 24.465-22.478 41.1 0 34.944 28.328 63.272 63.272 63.272h183.456c34.944 0 63.272-28.328 63.272-63.272v-.21c.001-16.521-8.355-31.92-22.204-40.925z" fill="#c6d2db"/><path d="m495.049 397.223c0-33.137-26.863-60-60-60-13.496 0-25.95 4.458-35.974 11.979l-145.088-20.87-142.963 20.776c-10.002-7.464-22.409-11.885-35.85-11.885-33.137 0-60 26.863-60 60 0 23.172 13.144 43.261 32.375 53.257v59.743h415v-59.678c19.299-9.975 32.5-30.1 32.5-53.322z" fill="#f88fa4"/><path d="m437.763 337.291c18.642 6.852 37.286 25.589 37.286 59.931 0 15.019-8.308 28.642-21.682 35.554l-10.818 5.591v71.855h20v-59.678c19.299-9.974 32.5-30.1 32.5-53.322 0-32.226-25.41-58.511-57.286-59.931z" fill="#f05475"/><path d="m210.049 461.16h88.886c33.137 0 60-26.863 60-60v-57.732l-104.948-15.096-103.938 15.104v57.724c0 33.137 26.863 60 60 60z" fill="#b5efff"/><path d="m338.934 340.551v60.609c0 33.137-26.863 60-60 60h20c33.137 0 60-26.863 60-60v-57.732z" fill="#80dbff"/><path d="m297.549 282.024c-11.35 5.345-25.393 8.354-42.5 8.354-17.099 0-31.143-3.02-42.5-8.381v26.401c0 14.902-10.938 27.545-25.686 29.688l-4.81.699c5.157 35.795 35.829 63.484 73.052 63.484 37.259 0 68.067-27.404 73.179-63.251l-5.006-.72c-14.767-2.124-25.729-14.776-25.729-29.694z" fill="#ffe1ba"/><circle cx="255.111" cy="431.528" fill="#feef8f" r="29.259"/><path d="m255.112 402.269c-3.513 0-6.88.62-10 1.755 11.235 4.086 19.259 14.857 19.259 27.504s-8.024 23.418-19.259 27.504c3.12 1.135 6.487 1.755 10 1.755 16.159 0 29.259-13.1 29.259-29.259s-13.1-29.259-29.259-29.259z" fill="#ffc277"/><path d="m47.549 450.48h72.833v59.743h-72.833z" fill="#b5efff"/><path d="m100.382 450.48h20v59.743h-20z" fill="#80dbff"/><path d="m389.799 450.48h72.833v59.743h-72.833z" fill="#b5efff"/><path d="m442.632 450.48h20v59.743h-20z" fill="#80dbff"/><path d="m172.445 202.394h-20.031c-12.444 0-22.531-10.088-22.531-22.531 0-12.444 10.088-22.531 22.531-22.531h20.031z" fill="#ffe1ba"/><path d="m337.653 202.394h20.031c12.444 0 22.531-10.088 22.531-22.531 0-12.444-10.088-22.531-22.531-22.531h-20.031z" fill="#ffe1ba"/><path d="m177.632 111.013c-3.428 10.322-5.02 21.762-5.02 33.818v63.109c0 45.529 22.563 82.437 82.437 82.437 60 0 82.438-36.908 82.438-82.437v-63.109c0-12.056-1.601-23.496-5.04-33.818z" fill="#fef2e2"/><path d="m332.447 111.013h-20-47.987c0 32.017 22.806 58.806 53.027 64.979v31.949c0 42.899-19.934 78.132-72.428 82.06 3.212.241 6.532.377 9.99.377 60 0 82.438-36.908 82.438-82.437v-63.109c-.001-12.057-1.602-23.497-5.04-33.819z" fill="#ffe1ba"/><path d="m330.778 157.332h34.86v-26.318c0-11.046-8.954-20-20-20h-61.179c.001 25.58 20.738 46.318 46.319 46.318z" fill="#fff"/><path d="m345.638 111.013h-20c11.046 0 20 8.954 20 20v26.318h20v-26.318c0-11.045-8.954-20-20-20z" fill="#c6d2db"/><path d="m179.972 157.332h-34.86v-26.318c0-11.046 8.954-20 20-20h61.179c-.001 25.58-20.738 46.318-46.319 46.318z" fill="#fff"/><path d="m328.486 66.66-2-30-43.089 20.506-28.348-43.443-28.394 43.499-43.169-20.562-2 30h-31.25l14.875 44.353h180.527l15-44.353z" fill="#feef8f"/><path d="m328.486 66.66-2-30-43.089 20.506-28.348-43.443-11.943 18.296 33.098 50.719 32.286-15.364 1.286 19.286h22.985l-8.236 24.353h21.113l15-44.353z" fill="#ffc277"/></g><g><path d="m217.08 171.894h15v15h-15z"/><path d="m278.018 171.894h15v15h-15z"/><path d="m290.507 213.126-13.399-6.742c-4.249 8.445-12.756 13.691-22.202 13.691-9.242 0-17.666-5.083-21.983-13.267l-13.267 6.999c6.921 13.119 20.428 21.268 35.25 21.268 15.148 0 28.789-8.41 35.601-21.949z"/><path d="m401.082 357.072 2.494-1.872c9.136-6.855 20.02-10.478 31.473-10.478 20.044 0 38.621 11.675 47.327 29.743l13.513-6.512c-11.191-23.225-35.072-38.231-60.84-38.231-7.249 0-14.317 1.141-21.032 3.34 2.33-7.075 3.532-14.528 3.532-22.174v-.21c0-19.134-9.577-36.783-25.617-47.212-11.768-7.652-18.793-20.6-18.793-34.637v-23.204c2.079-1.252 4.021-2.767 5.781-4.527 5.672-5.672 8.796-13.213 8.796-21.235 0-10.911-5.85-20.479-14.577-25.738v-23.111c0-11.698-7.345-21.708-17.664-25.674l15.617-46.179h-35.589l-2.268-34.018-47.14 22.433-31.045-47.576-31.09 47.631-47.222-22.493-2.268 34.022h-34.659l15.485 46.171c-10.329 3.961-17.684 13.976-17.684 25.682v22.736c-9.085 5.17-15.229 14.935-15.229 26.114s6.144 20.944 15.229 26.113v22.643c0 14.148-7.112 27.152-19.024 34.785l-.107.069c-7.928 5.081-14.507 12.132-19.024 20.394l13.16 7.197c3.314-6.061 8.141-11.234 13.958-14.962l.107-.068c16.237-10.404 25.931-28.129 25.931-47.415v-18.726h12.535c.487 36.466 14.523 62.787 39.902 76.682v21.822c0 11.098-8.282 20.67-19.264 22.267l-69.562 10.108c-5.686-8.921-8.674-19.165-8.674-29.885 0-2.509.23-5.03.685-7.494l-14.752-2.719c-.619 3.358-.933 6.794-.933 10.213 0 7.641 1.201 15.093 3.529 22.165-7.765-2.526-15.992-3.654-24.26-3.249-17.222.836-33.333 8.233-45.368 20.828-12.025 12.586-18.694 29.016-18.776 46.262-.113 23.866 12.181 45.673 32.375 57.964v55.364h15v-52.241h57.833v52.243h15v-67.243h-22.333v-18.757h-15v18.757h-15v-18.757h-15v18.757h-11.102c-16.651-9.366-26.865-26.835-26.774-46.014.064-13.395 5.257-26.17 14.622-35.971 9.367-9.803 21.885-15.559 35.25-16.208 12.382-.599 24.13 2.972 33.992 10.332l2.49 1.858 33.521-4.871v49.055c0 17.701 6.802 34.429 19.153 47.104l10.743-10.469c-9.606-9.857-14.896-22.869-14.896-36.636v-51.235l18.349-2.667c3.905 16.371 12.852 31.235 25.665 42.429 8.13 7.103 17.527 12.443 27.602 15.828-6.675 6.659-10.812 15.861-10.812 26.012 0 8.304 2.771 15.971 7.432 22.132h-15.735c-9.644 0-19.07-2.635-27.258-7.621l-7.801 12.812c10.539 6.417 22.662 9.808 35.059 9.808h88.886c37.22 0 67.5-30.28 67.5-67.5v-49.126zm-17.326-81.03c11.768 7.651 18.793 20.6 18.793 34.637v.21c0 10.756-3.007 21.03-8.729 29.97l-69.509-10.108c-10.981-1.597-19.262-11.169-19.262-22.266v-21.908c25.379-13.895 39.415-40.216 39.902-76.682h12.733.001c.152 0 .302-.009.453-.011v18.947c0 19.131 9.577 36.781 25.618 47.211zm-11.041-96.179c0 4.015-1.563 7.79-4.402 10.628-2.839 2.839-6.614 4.402-10.629 4.402h-12.531v-30.062h12.531c8.288.001 15.031 6.744 15.031 15.032zm-14.577-30.031h-.454-26.928c-18.83-.011-34.568-13.497-38.07-31.318h52.952c6.893 0 12.5 5.607 12.5 12.5zm-169.635-75.672 1.732-25.978 39.116 18.631 25.697-39.368 25.652 39.31 39.038-18.578 1.732 25.982h28.715l-9.927 29.353h-169.752l-9.844-29.353h27.841zm-35.892 56.853c0-6.893 5.607-12.5 12.5-12.5h52.952c-3.503 17.829-19.251 31.318-38.091 31.318h-.027-27.334zm12.334 63.881h-12.531c-8.288 0-15.031-6.743-15.031-15.031s6.743-15.031 15.031-15.031h12.531zm32.063 66.385c-11.054-12.564-16.896-31.008-16.896-53.338v-43.113c27.067-.069 49.489-20.224 53.145-46.315h44.237c3.626 25.881 25.719 45.909 52.493 46.299v43.129c0 34.186-13.001 74.938-74.938 74.938-25.904-.001-45.432-7.268-58.041-21.6zm-6.208 83.69c16.863-3.821 29.249-19.052 29.249-36.571v-15.492c10.354 3.271 22.043 4.973 35 4.973s24.646-1.702 35-4.973v15.579c0 17.547 12.427 32.798 29.331 36.589-7.505 28.789-33.926 49.697-64.276 49.697-30.372-.001-56.835-20.964-64.304-49.802zm86.071 86.559c0 11.998-9.761 21.759-21.759 21.759s-21.759-9.761-21.759-21.759 9.761-21.759 21.759-21.759c11.998.001 21.759 9.761 21.759 21.759zm74.564-30.368c0 28.949-23.551 52.5-52.5 52.5h-14.496c4.661-6.161 7.432-13.828 7.432-22.132 0-10.153-4.138-19.357-10.816-26.016 10.088-3.391 19.495-8.743 27.633-15.862 12.766-11.169 21.68-25.98 25.594-42.293l17.153 2.495z"/><path d="m501.303 384.255-14.724 2.866c.643 3.304.969 6.702.969 10.101 0 19.079-10.21 36.44-26.773 45.757h-11.06v-18.757h-15v18.757h-15v-18.757h-15v18.757h-22.417v67.243h15v-52.242h57.75v52.243h15v-55.289c20.161-12.213 32.5-33.922 32.5-57.711.001-4.359-.418-8.722-1.245-12.968z"/><path d="m247.91 74.056h15v15h-15z"/><path d="m293.049 500.66h-14.875v-15h14.875zm-29.875 0h-15v-15h15zm-30 0h-15v-15h15z" fill="#fff"/></g></g></svg>